<svg width="2272" height="742" viewBox="0 0 2272 742" fill="none" xmlns="http://www.w3.org/2000/svg">
<path d="M1840.6 718.498L1840.9 594.898L2209.3 226.398L2271 288.098L1840.6 718.498Z" fill="#2C3E50"/>
<path d="M2036.9 178.098L2036.6 54.3984L2270.4 288.198L2208.7 349.898L2036.9 178.098Z" fill="#2C3E50"/>
<path d="M1841 544.498L1841.3 420.898L2035.3 226.398L2097 288.098L1841 544.498Z" fill="#E67E22"/>
<path d="M1912.5 227.598L1912.2 103.898L2096.4 288.198L2034.7 349.898L1912.5 227.598Z" fill="#E67E22"/>
<path d="M68.1136 697.348C65.7322 697.348 63.6016 696.47 61.7216 694.716C59.8416 692.961 58.9016 690.642 58.9016 687.76V595.076C58.9016 586.052 60.6562 578.218 64.1656 571.576C67.8002 564.933 72.8136 559.794 79.2056 556.16C85.5976 552.4 92.9922 550.52 101.39 550.52C104.147 550.52 106.403 551.334 108.158 552.964C110.038 554.593 110.978 556.661 110.978 559.168C110.978 561.549 110.038 563.617 108.158 565.372C106.403 567.001 104.147 567.816 101.39 567.816C96.7522 567.816 92.6789 568.881 89.1696 571.012C85.6602 573.142 82.9029 576.088 80.8976 579.848C79.0176 583.608 78.0776 588.057 78.0776 593.196V687.76C78.0776 690.642 77.2002 692.961 75.4456 694.716C73.6909 696.47 71.2469 697.348 68.1136 697.348ZM50.8176 614.44C48.1856 614.44 46.0549 613.688 44.4256 612.184C42.7962 610.68 41.9816 608.8 41.9816 606.544C41.9816 604.037 42.7962 602.032 44.4256 600.528C46.0549 599.024 48.1856 598.272 50.8176 598.272H97.2536C99.8856 598.272 102.016 599.024 103.646 600.528C105.275 602.032 106.09 604.037 106.09 606.544C106.09 608.8 105.275 610.68 103.646 612.184C102.016 613.688 99.8856 614.44 97.2536 614.44H50.8176ZM125.865 633.052C125.865 625.532 127.682 618.826 131.317 612.936C135.077 606.92 140.09 602.157 146.357 598.648C152.623 595.138 159.517 593.384 167.037 593.384C174.557 593.384 180.134 594.637 183.769 597.144C187.529 599.525 188.97 602.408 188.093 605.792C187.717 607.546 186.965 608.925 185.837 609.928C184.834 610.805 183.643 611.369 182.265 611.62C180.886 611.87 179.382 611.808 177.753 611.432C169.731 609.802 162.525 609.677 156.133 611.056C149.741 612.434 144.665 615.004 140.905 618.764C137.27 622.524 135.453 627.286 135.453 633.052H125.865ZM126.053 697.348C123.045 697.348 120.726 696.596 119.097 695.092C117.467 693.462 116.653 691.081 116.653 687.948V603.912C116.653 600.904 117.467 598.585 119.097 596.956C120.726 595.326 123.045 594.512 126.053 594.512C129.186 594.512 131.505 595.326 133.009 596.956C134.638 598.46 135.453 600.778 135.453 603.912V687.948C135.453 690.956 134.638 693.274 133.009 694.904C131.505 696.533 129.186 697.348 126.053 697.348ZM237.779 698.1C227.627 698.1 218.666 695.906 210.895 691.52C203.124 687.008 196.983 680.866 192.471 673.096C188.084 665.2 185.891 656.176 185.891 646.024C185.891 635.746 188.084 626.722 192.471 618.952C196.983 611.056 203.124 604.914 210.895 600.528C218.666 596.016 227.627 593.76 237.779 593.76C247.806 593.76 256.704 596.016 264.475 600.528C272.246 604.914 278.324 611.056 282.711 618.952C287.223 626.722 289.479 635.746 289.479 646.024C289.479 656.176 287.286 665.2 282.899 673.096C278.512 680.866 272.434 687.008 264.663 691.52C256.892 695.906 247.931 698.1 237.779 698.1ZM237.779 681.18C244.296 681.18 250.062 679.676 255.075 676.668C260.088 673.66 263.974 669.524 266.731 664.26C269.614 658.996 271.055 652.917 271.055 646.024C271.055 639.13 269.614 633.052 266.731 627.788C263.974 622.398 260.088 618.2 255.075 615.192C250.062 612.184 244.296 610.68 237.779 610.68C231.262 610.68 225.496 612.184 220.483 615.192C215.47 618.2 211.522 622.398 208.639 627.788C205.756 633.052 204.315 639.13 204.315 646.024C204.315 652.917 205.756 658.996 208.639 664.26C211.522 669.524 215.47 673.66 220.483 676.668C225.496 679.676 231.262 681.18 237.779 681.18ZM395.474 697.536C392.717 697.536 390.398 696.658 388.518 694.904C386.764 693.024 385.886 690.705 385.886 687.948V641.7C385.886 634.556 384.57 628.728 381.938 624.216C379.306 619.704 375.734 616.382 371.222 614.252C366.836 611.996 361.76 610.868 355.994 610.868C350.73 610.868 345.968 611.933 341.706 614.064C337.445 616.194 334.061 619.077 331.554 622.712C329.048 626.221 327.794 630.294 327.794 634.932H315.95C315.95 627.036 317.83 620.017 321.59 613.876C325.476 607.609 330.74 602.658 337.382 599.024C344.025 595.389 351.482 593.572 359.754 593.572C368.402 593.572 376.11 595.452 382.878 599.212C389.772 602.846 395.161 608.236 399.046 615.38C403.057 622.524 405.062 631.297 405.062 641.7V687.948C405.062 690.705 404.122 693.024 402.242 694.904C400.488 696.658 398.232 697.536 395.474 697.536ZM318.206 697.536C315.449 697.536 313.13 696.658 311.25 694.904C309.496 693.024 308.618 690.705 308.618 687.948V604.1C308.618 601.217 309.496 598.898 311.25 597.144C313.13 595.389 315.449 594.512 318.206 594.512C321.089 594.512 323.408 595.389 325.162 597.144C326.917 598.898 327.794 601.217 327.794 604.1V687.948C327.794 690.705 326.917 693.024 325.162 694.904C323.408 696.658 321.089 697.536 318.206 697.536ZM464.779 697.348C458.512 697.348 452.872 695.781 447.859 692.648C442.846 689.389 438.898 685.002 436.015 679.488C433.132 673.973 431.691 667.769 431.691 660.876V571.2C431.691 568.442 432.568 566.186 434.323 564.432C436.078 562.677 438.334 561.8 441.091 561.8C443.848 561.8 446.104 562.677 447.859 564.432C449.614 566.186 450.491 568.442 450.491 571.2V660.876C450.491 665.889 451.87 670.088 454.627 673.472C457.384 676.856 460.768 678.548 464.779 678.548H471.171C473.427 678.548 475.307 679.425 476.811 681.18C478.44 682.934 479.255 685.19 479.255 687.948C479.255 690.705 478.19 692.961 476.059 694.716C474.054 696.47 471.422 697.348 468.163 697.348H464.779ZM423.043 614.44C420.411 614.44 418.28 613.688 416.651 612.184C415.022 610.68 414.207 608.8 414.207 606.544C414.207 604.037 415.022 602.032 416.651 600.528C418.28 599.024 420.411 598.272 423.043 598.272H466.471C469.103 598.272 471.234 599.024 472.863 600.528C474.492 602.032 475.307 604.037 475.307 606.544C475.307 608.8 474.492 610.68 472.863 612.184C471.234 613.688 469.103 614.44 466.471 614.44H423.043ZM541.74 698.1C531.337 698.1 522.063 695.906 513.916 691.52C505.895 687.008 499.565 680.866 494.928 673.096C490.416 665.2 488.16 656.176 488.16 646.024C488.16 635.746 490.291 626.722 494.552 618.952C498.939 611.056 504.955 604.914 512.6 600.528C520.245 596.016 529.019 593.76 538.92 593.76C548.696 593.76 557.093 595.953 564.112 600.34C571.131 604.601 576.457 610.554 580.092 618.2C583.852 625.72 585.732 634.43 585.732 644.332C585.732 646.713 584.917 648.718 583.288 650.348C581.659 651.852 579.591 652.604 577.084 652.604H501.32V637.564H576.52L568.812 642.828C568.687 636.561 567.433 630.984 565.052 626.096C562.671 621.082 559.287 617.134 554.9 614.252C550.513 611.369 545.187 609.928 538.92 609.928C531.776 609.928 525.635 611.494 520.496 614.628C515.483 617.761 511.66 622.085 509.028 627.6C506.396 632.989 505.08 639.13 505.08 646.024C505.08 652.917 506.647 659.058 509.78 664.448C512.913 669.837 517.237 674.098 522.752 677.232C528.267 680.365 534.596 681.932 541.74 681.932C545.625 681.932 549.573 681.242 553.584 679.864C557.72 678.36 561.041 676.668 563.548 674.788C565.428 673.409 567.433 672.72 569.564 672.72C571.82 672.594 573.763 673.221 575.392 674.6C577.523 676.48 578.651 678.548 578.776 680.804C578.901 683.06 577.899 685.002 575.768 686.632C571.507 690.016 566.18 692.773 559.788 694.904C553.521 697.034 547.505 698.1 541.74 698.1ZM687.646 697.536C684.888 697.536 682.57 696.658 680.69 694.904C678.935 693.024 678.058 690.705 678.058 687.948V641.7C678.058 634.556 676.742 628.728 674.11 624.216C671.478 619.704 667.906 616.382 663.394 614.252C659.007 611.996 653.931 610.868 648.166 610.868C642.902 610.868 638.139 611.933 633.878 614.064C629.616 616.194 626.232 619.077 623.726 622.712C621.219 626.221 619.966 630.294 619.966 634.932H608.122C608.122 627.036 610.002 620.017 613.762 613.876C617.647 607.609 622.911 602.658 629.554 599.024C636.196 595.389 643.654 593.572 651.926 593.572C660.574 593.572 668.282 595.452 675.05 599.212C681.943 602.846 687.332 608.236 691.218 615.38C695.228 622.524 697.234 631.297 697.234 641.7V687.948C697.234 690.705 696.294 693.024 694.414 694.904C692.659 696.658 690.403 697.536 687.646 697.536ZM610.378 697.536C607.62 697.536 605.302 696.658 603.422 694.904C601.667 693.024 600.79 690.705 600.79 687.948V604.1C600.79 601.217 601.667 598.898 603.422 597.144C605.302 595.389 607.62 594.512 610.378 594.512C613.26 594.512 615.579 595.389 617.334 597.144C619.088 598.898 619.966 601.217 619.966 604.1V687.948C619.966 690.705 619.088 693.024 617.334 694.904C615.579 696.658 613.26 697.536 610.378 697.536ZM766.162 698.1C756.386 698.1 747.55 695.844 739.654 691.332C731.883 686.694 725.679 680.428 721.042 672.532C716.53 664.636 714.274 655.737 714.274 645.836C714.274 635.934 716.342 627.098 720.478 619.328C724.739 611.432 730.505 605.228 737.774 600.716C745.043 596.078 753.253 593.76 762.402 593.76C769.797 593.76 776.627 595.326 782.894 598.46C789.161 601.468 794.425 605.604 798.686 610.868V560.108C798.686 557.225 799.563 554.906 801.318 553.152C803.198 551.397 805.517 550.52 808.274 550.52C811.157 550.52 813.475 551.397 815.23 553.152C816.985 554.906 817.862 557.225 817.862 560.108V645.836C817.862 655.737 815.543 664.636 810.906 672.532C806.394 680.428 800.253 686.694 792.482 691.332C784.711 695.844 775.938 698.1 766.162 698.1ZM766.162 681.18C772.554 681.18 778.257 679.676 783.27 676.668C788.283 673.534 792.231 669.273 795.114 663.884C797.997 658.494 799.438 652.478 799.438 645.836C799.438 639.068 797.997 633.052 795.114 627.788C792.231 622.524 788.283 618.388 783.27 615.38C778.257 612.246 772.554 610.68 766.162 610.68C759.895 610.68 754.193 612.246 749.054 615.38C744.041 618.388 740.03 622.524 737.022 627.788C734.139 633.052 732.698 639.068 732.698 645.836C732.698 652.478 734.139 658.494 737.022 663.884C740.03 669.273 744.041 673.534 749.054 676.668C754.193 679.676 759.895 681.18 766.162 681.18ZM934.628 698.1C924.852 698.1 916.016 695.844 908.12 691.332C900.349 686.694 894.145 680.428 889.508 672.532C884.996 664.636 882.74 655.737 882.74 645.836C882.74 635.934 884.808 627.098 888.944 619.328C893.205 611.432 898.97 605.228 906.24 600.716C913.509 596.078 921.718 593.76 930.868 593.76C938.262 593.76 945.093 595.326 951.36 598.46C957.626 601.468 962.89 605.604 967.152 610.868V560.108C967.152 557.225 968.029 554.906 969.784 553.152C971.664 551.397 973.982 550.52 976.74 550.52C979.622 550.52 981.941 551.397 983.696 553.152C985.45 554.906 986.328 557.225 986.328 560.108V645.836C986.328 655.737 984.009 664.636 979.372 672.532C974.86 680.428 968.718 686.694 960.948 691.332C953.177 695.844 944.404 698.1 934.628 698.1ZM934.628 681.18C941.02 681.18 946.722 679.676 951.736 676.668C956.749 673.534 960.697 669.273 963.58 663.884C966.462 658.494 967.904 652.478 967.904 645.836C967.904 639.068 966.462 633.052 963.58 627.788C960.697 622.524 956.749 618.388 951.736 615.38C946.722 612.246 941.02 610.68 934.628 610.68C928.361 610.68 922.658 612.246 917.52 615.38C912.506 618.388 908.496 622.524 905.488 627.788C902.605 633.052 901.164 639.068 901.164 645.836C901.164 652.478 902.605 658.494 905.488 663.884C908.496 669.273 912.506 673.534 917.52 676.668C922.658 679.676 928.361 681.18 934.628 681.18ZM1059.11 698.1C1048.7 698.1 1039.43 695.906 1031.28 691.52C1023.26 687.008 1016.93 680.866 1012.3 673.096C1007.78 665.2 1005.53 656.176 1005.53 646.024C1005.53 635.746 1007.66 626.722 1011.92 618.952C1016.31 611.056 1022.32 604.914 1029.97 600.528C1037.61 596.016 1046.39 593.76 1056.29 593.76C1066.06 593.76 1074.46 595.953 1081.48 600.34C1088.5 604.601 1093.82 610.554 1097.46 618.2C1101.22 625.72 1103.1 634.43 1103.1 644.332C1103.1 646.713 1102.28 648.718 1100.66 650.348C1099.03 651.852 1096.96 652.604 1094.45 652.604H1018.69V637.564H1093.89L1086.18 642.828C1086.05 636.561 1084.8 630.984 1082.42 626.096C1080.04 621.082 1076.65 617.134 1072.27 614.252C1067.88 611.369 1062.55 609.928 1056.29 609.928C1049.14 609.928 1043 611.494 1037.86 614.628C1032.85 617.761 1029.03 622.085 1026.4 627.6C1023.76 632.989 1022.45 639.13 1022.45 646.024C1022.45 652.917 1024.01 659.058 1027.15 664.448C1030.28 669.837 1034.6 674.098 1040.12 677.232C1045.63 680.365 1051.96 681.932 1059.11 681.932C1062.99 681.932 1066.94 681.242 1070.95 679.864C1075.09 678.36 1078.41 676.668 1080.92 674.788C1082.8 673.409 1084.8 672.72 1086.93 672.72C1089.19 672.594 1091.13 673.221 1092.76 674.6C1094.89 676.48 1096.02 678.548 1096.14 680.804C1096.27 683.06 1095.27 685.002 1093.14 686.632C1088.87 690.016 1083.55 692.773 1077.16 694.904C1070.89 697.034 1064.87 698.1 1059.11 698.1ZM1149.26 697.16C1145.38 697.16 1142.37 695.092 1140.24 690.956L1100.38 606.92C1099.38 604.789 1099.26 602.721 1100.01 600.716C1100.89 598.585 1102.52 596.956 1104.9 595.828C1107.03 594.7 1109.16 594.512 1111.29 595.264C1113.54 596.016 1115.24 597.457 1116.36 599.588L1153.59 679.864H1144.56L1181.41 599.588C1182.54 597.457 1184.23 596.016 1186.49 595.264C1188.87 594.512 1191.25 594.7 1193.63 595.828C1195.89 596.83 1197.39 598.397 1198.14 600.528C1198.9 602.658 1198.77 604.789 1197.77 606.92L1157.91 690.956C1156.03 695.092 1153.15 697.16 1149.26 697.16ZM1252.73 698.1C1242.32 698.1 1233.05 695.906 1224.9 691.52C1216.88 687.008 1210.55 680.866 1205.91 673.096C1201.4 665.2 1199.15 656.176 1199.15 646.024C1199.15 635.746 1201.28 626.722 1205.54 618.952C1209.92 611.056 1215.94 604.914 1223.59 600.528C1231.23 596.016 1240 593.76 1249.91 593.76C1259.68 593.76 1268.08 595.953 1275.1 600.34C1282.12 604.601 1287.44 610.554 1291.08 618.2C1294.84 625.72 1296.72 634.43 1296.72 644.332C1296.72 646.713 1295.9 648.718 1294.27 650.348C1292.64 651.852 1290.58 652.604 1288.07 652.604H1212.31V637.564H1287.51L1279.8 642.828C1279.67 636.561 1278.42 630.984 1276.04 626.096C1273.66 621.082 1270.27 617.134 1265.89 614.252C1261.5 611.369 1256.17 609.928 1249.91 609.928C1242.76 609.928 1236.62 611.494 1231.48 614.628C1226.47 617.761 1222.65 622.085 1220.01 627.6C1217.38 632.989 1216.07 639.13 1216.07 646.024C1216.07 652.917 1217.63 659.058 1220.77 664.448C1223.9 669.837 1228.22 674.098 1233.74 677.232C1239.25 680.365 1245.58 681.932 1252.73 681.932C1256.61 681.932 1260.56 681.242 1264.57 679.864C1268.71 678.36 1272.03 676.668 1274.53 674.788C1276.41 673.409 1278.42 672.72 1280.55 672.72C1282.81 672.594 1284.75 673.221 1286.38 674.6C1288.51 676.48 1289.64 678.548 1289.76 680.804C1289.89 683.06 1288.88 685.002 1286.75 686.632C1282.49 690.016 1277.17 692.773 1270.77 694.904C1264.51 697.034 1258.49 698.1 1252.73 698.1ZM1336.21 697.348C1330.7 697.348 1325.81 695.844 1321.55 692.836C1317.29 689.828 1313.97 685.754 1311.59 680.616C1309.21 675.352 1308.01 669.336 1308.01 662.568V559.92C1308.01 557.162 1308.89 554.906 1310.65 553.152C1312.4 551.397 1314.66 550.52 1317.41 550.52C1320.17 550.52 1322.43 551.397 1324.18 553.152C1325.94 554.906 1326.81 557.162 1326.81 559.92V662.568C1326.81 667.205 1327.69 671.028 1329.45 674.036C1331.2 677.044 1333.46 678.548 1336.21 678.548H1340.91C1343.42 678.548 1345.43 679.425 1346.93 681.18C1348.56 682.934 1349.37 685.19 1349.37 687.948C1349.37 690.705 1348.18 692.961 1345.8 694.716C1343.42 696.47 1340.35 697.348 1336.59 697.348H1336.21ZM1399.67 698.1C1389.52 698.1 1380.56 695.906 1372.79 691.52C1365.02 687.008 1358.87 680.866 1354.36 673.096C1349.98 665.2 1347.78 656.176 1347.78 646.024C1347.78 635.746 1349.98 626.722 1354.36 618.952C1358.87 611.056 1365.02 604.914 1372.79 600.528C1380.56 596.016 1389.52 593.76 1399.67 593.76C1409.7 593.76 1418.6 596.016 1426.37 600.528C1434.14 604.914 1440.22 611.056 1444.6 618.952C1449.11 626.722 1451.37 635.746 1451.37 646.024C1451.37 656.176 1449.18 665.2 1444.79 673.096C1440.4 680.866 1434.33 687.008 1426.55 691.52C1418.78 695.906 1409.82 698.1 1399.67 698.1ZM1399.67 681.18C1406.19 681.18 1411.95 679.676 1416.97 676.668C1421.98 673.66 1425.87 669.524 1428.62 664.26C1431.51 658.996 1432.95 652.917 1432.95 646.024C1432.95 639.13 1431.51 633.052 1428.62 627.788C1425.87 622.398 1421.98 618.2 1416.97 615.192C1411.95 612.184 1406.19 610.68 1399.67 610.68C1393.15 610.68 1387.39 612.184 1382.37 615.192C1377.36 618.2 1373.41 622.398 1370.53 627.788C1367.65 633.052 1366.21 639.13 1366.21 646.024C1366.21 652.917 1367.65 658.996 1370.53 664.26C1373.41 669.524 1377.36 673.66 1382.37 676.668C1387.39 679.676 1393.15 681.18 1399.67 681.18ZM1480.1 741.34C1477.34 741.34 1475.02 740.4 1473.14 738.52C1471.39 736.765 1470.51 734.509 1470.51 731.752V646.024C1470.64 636.122 1472.95 627.224 1477.47 619.328C1481.98 611.432 1488.12 605.228 1495.89 600.716C1503.66 596.078 1512.43 593.76 1522.21 593.76C1532.11 593.76 1540.95 596.078 1548.72 600.716C1556.49 605.228 1562.63 611.432 1567.14 619.328C1571.78 627.224 1574.1 636.122 1574.1 646.024C1574.1 655.925 1571.97 664.824 1567.71 672.72C1563.57 680.49 1557.87 686.694 1550.6 691.332C1543.33 695.844 1535.12 698.1 1525.97 698.1C1518.58 698.1 1511.74 696.596 1505.48 693.588C1499.34 690.454 1494.07 686.256 1489.69 680.992V731.752C1489.69 734.509 1488.81 736.765 1487.05 738.52C1485.3 740.4 1482.98 741.34 1480.1 741.34ZM1522.21 681.18C1528.6 681.18 1534.3 679.676 1539.32 676.668C1544.33 673.534 1548.28 669.336 1551.16 664.072C1554.17 658.682 1555.67 652.666 1555.67 646.024C1555.67 639.256 1554.17 633.24 1551.16 627.976C1548.28 622.586 1544.33 618.388 1539.32 615.38C1534.3 612.246 1528.6 610.68 1522.21 610.68C1515.94 610.68 1510.24 612.246 1505.1 615.38C1500.09 618.388 1496.14 622.586 1493.26 627.976C1490.38 633.24 1488.93 639.256 1488.93 646.024C1488.93 652.666 1490.38 658.682 1493.26 664.072C1496.14 669.336 1500.09 673.534 1505.1 676.668C1510.24 679.676 1515.94 681.18 1522.21 681.18ZM1641.61 698.1C1631.21 698.1 1621.94 695.906 1613.79 691.52C1605.77 687.008 1599.44 680.866 1594.8 673.096C1590.29 665.2 1588.03 656.176 1588.03 646.024C1588.03 635.746 1590.16 626.722 1594.43 618.952C1598.81 611.056 1604.83 604.914 1612.47 600.528C1620.12 596.016 1628.89 593.76 1638.79 593.76C1648.57 593.76 1656.97 595.953 1663.99 600.34C1671 604.601 1676.33 610.554 1679.97 618.2C1683.73 625.72 1685.61 634.43 1685.61 644.332C1685.61 646.713 1684.79 648.718 1683.16 650.348C1681.53 651.852 1679.46 652.604 1676.96 652.604H1601.19V637.564H1676.39L1668.69 642.828C1668.56 636.561 1667.31 630.984 1664.93 626.096C1662.54 621.082 1659.16 617.134 1654.77 614.252C1650.39 611.369 1645.06 609.928 1638.79 609.928C1631.65 609.928 1625.51 611.494 1620.37 614.628C1615.36 617.761 1611.53 622.085 1608.9 627.6C1606.27 632.989 1604.95 639.13 1604.95 646.024C1604.95 652.917 1606.52 659.058 1609.65 664.448C1612.79 669.837 1617.11 674.098 1622.63 677.232C1628.14 680.365 1634.47 681.932 1641.61 681.932C1645.5 681.932 1649.45 681.242 1653.46 679.864C1657.59 678.36 1660.91 676.668 1663.42 674.788C1665.3 673.409 1667.31 672.72 1669.44 672.72C1671.69 672.594 1673.64 673.221 1675.27 674.6C1677.4 676.48 1678.52 678.548 1678.65 680.804C1678.77 683.06 1677.77 685.002 1675.64 686.632C1671.38 690.016 1666.05 692.773 1659.66 694.904C1653.39 697.034 1647.38 698.1 1641.61 698.1ZM1709.87 633.052C1709.87 625.532 1711.69 618.826 1715.33 612.936C1719.09 606.92 1724.1 602.157 1730.37 598.648C1736.63 595.138 1743.53 593.384 1751.05 593.384C1758.57 593.384 1764.14 594.637 1767.78 597.144C1771.54 599.525 1772.98 602.408 1772.1 605.792C1771.73 607.546 1770.97 608.925 1769.85 609.928C1768.84 610.805 1767.65 611.369 1766.27 611.62C1764.9 611.87 1763.39 611.808 1761.76 611.432C1753.74 609.802 1746.53 609.677 1740.14 611.056C1733.75 612.434 1728.67 615.004 1724.91 618.764C1721.28 622.524 1719.46 627.286 1719.46 633.052H1709.87ZM1710.06 697.348C1707.05 697.348 1704.74 696.596 1703.11 695.092C1701.48 693.462 1700.66 691.081 1700.66 687.948V603.912C1700.66 600.904 1701.48 598.585 1703.11 596.956C1704.74 595.326 1707.05 594.512 1710.06 594.512C1713.2 594.512 1715.51 595.326 1717.02 596.956C1718.65 598.46 1719.46 600.778 1719.46 603.912V687.948C1719.46 690.956 1718.65 693.274 1717.02 694.904C1715.51 696.533 1713.2 697.348 1710.06 697.348Z" fill="#16A085"/>
<path d="M75.1725 363.329C67.3845 363.329 60.8355 360.851 55.5255 355.895C50.5695 350.585 48.0915 344.036 48.0915 336.248V81.368C48.0915 73.226 50.5695 66.677 55.5255 61.721C60.8355 56.765 67.3845 54.287 75.1725 54.287C83.3145 54.287 89.8635 56.765 94.8195 61.721C99.7755 66.677 102.254 73.226 102.254 81.368V336.248C102.254 344.036 99.7755 350.585 94.8195 355.895C89.8635 360.851 83.3145 363.329 75.1725 363.329ZM293.414 469.529C285.626 469.529 279.077 467.051 273.767 462.095C268.811 456.785 266.333 450.236 266.333 442.448V311.822C266.333 291.644 262.616 275.183 255.182 262.439C247.748 249.695 237.659 240.314 224.915 234.296C212.525 227.924 198.188 224.738 181.904 224.738C167.036 224.738 153.584 227.747 141.548 233.765C129.512 239.783 119.954 247.925 112.874 258.191C105.794 268.103 102.254 279.608 102.254 292.706H68.8005C68.8005 270.404 74.1105 250.58 84.7305 233.234C95.7045 215.534 110.573 201.551 129.335 191.285C148.097 181.019 169.16 175.886 192.524 175.886C216.95 175.886 238.721 181.196 257.837 191.816C277.307 202.082 292.529 217.304 303.503 237.482C314.831 257.66 320.495 282.44 320.495 311.822V442.448C320.495 450.236 317.84 456.785 312.53 462.095C307.574 467.051 301.202 469.529 293.414 469.529ZM75.1725 469.529C67.3845 469.529 60.8355 467.051 55.5255 462.095C50.5695 456.785 48.0915 450.236 48.0915 442.448V205.622C48.0915 197.48 50.5695 190.931 55.5255 185.975C60.8355 181.019 67.3845 178.541 75.1725 178.541C83.3145 178.541 89.8635 181.019 94.8195 185.975C99.7755 190.931 102.254 197.48 102.254 205.622V442.448C102.254 450.236 99.7755 456.785 94.8195 462.095C89.8635 467.051 83.3145 469.529 75.1725 469.529ZM494.459 471.122C468.617 471.122 445.43 464.75 424.898 452.006C404.366 438.908 388.082 421.385 376.046 399.437C364.364 377.135 358.523 352.001 358.523 324.035C358.523 296.069 364.895 270.935 377.639 248.633C390.737 226.331 408.26 208.808 430.208 196.064C452.51 182.966 477.467 176.417 505.079 176.417C532.691 176.417 557.471 182.966 579.419 196.064C601.367 208.808 618.713 226.331 631.457 248.633C644.555 270.935 651.104 296.069 651.104 324.035H630.395C630.395 352.001 624.377 377.135 612.341 399.437C600.659 421.385 584.552 438.908 564.02 452.006C543.488 464.75 520.301 471.122 494.459 471.122ZM505.079 423.332C523.133 423.332 539.24 419.084 553.4 410.588C567.56 401.738 578.711 389.879 586.853 375.011C594.995 359.789 599.066 342.797 599.066 324.035C599.066 304.919 594.995 287.927 586.853 273.059C578.711 257.837 567.56 245.978 553.4 237.482C539.24 228.632 523.133 224.207 505.079 224.207C487.379 224.207 471.272 228.632 456.758 237.482C442.598 245.978 431.27 257.837 422.774 273.059C414.632 287.927 410.561 304.919 410.561 324.035C410.561 342.797 414.632 359.789 422.774 375.011C431.27 389.879 442.598 401.738 456.758 410.588C471.272 419.084 487.379 423.332 505.079 423.332ZM624.023 469.529C616.235 469.529 609.686 467.051 604.376 462.095C599.42 456.785 596.942 450.236 596.942 442.448V361.205L607.031 304.919L651.104 324.035V442.448C651.104 450.236 648.449 456.785 643.139 462.095C638.183 467.051 631.811 469.529 624.023 469.529ZM800.212 468.998C782.512 468.998 766.582 464.573 752.422 455.723C738.262 446.519 727.111 434.129 718.969 418.553C710.827 402.977 706.756 385.454 706.756 365.984V112.697C706.756 104.909 709.234 98.537 714.19 93.581C719.146 88.625 725.518 86.147 733.306 86.147C741.094 86.147 747.466 88.625 752.422 93.581C757.378 98.537 759.856 104.909 759.856 112.697V365.984C759.856 380.144 763.75 392.003 771.538 401.561C779.326 411.119 788.884 415.898 800.212 415.898H818.266C824.638 415.898 829.948 418.376 834.196 423.332C838.798 428.288 841.099 434.66 841.099 442.448C841.099 450.236 838.09 456.608 832.072 461.564C826.408 466.52 818.974 468.998 809.77 468.998H800.212ZM682.33 234.827C674.896 234.827 668.878 232.703 664.276 228.455C659.674 224.207 657.373 218.897 657.373 212.525C657.373 205.445 659.674 199.781 664.276 195.533C668.878 191.285 674.896 189.161 682.33 189.161H804.991C812.425 189.161 818.443 191.285 823.045 195.533C827.647 199.781 829.948 205.445 829.948 212.525C829.948 218.897 827.647 224.207 823.045 228.455C818.443 232.703 812.425 234.827 804.991 234.827H682.33ZM976.167 468.998C958.467 468.998 942.538 464.573 928.378 455.723C914.218 446.519 903.067 434.129 894.925 418.553C886.782 402.977 882.711 385.454 882.711 365.984V112.697C882.711 104.909 885.189 98.537 890.145 93.581C895.101 88.625 901.473 86.147 909.261 86.147C917.049 86.147 923.421 88.625 928.378 93.581C933.334 98.537 935.812 104.909 935.812 112.697V365.984C935.812 380.144 939.706 392.003 947.494 401.561C955.281 411.119 964.839 415.898 976.167 415.898H994.222C1000.59 415.898 1005.9 418.376 1010.15 423.332C1014.75 428.288 1017.05 434.66 1017.05 442.448C1017.05 450.236 1014.05 456.608 1008.03 461.564C1002.36 466.52 994.929 468.998 985.726 468.998H976.167ZM858.285 234.827C850.851 234.827 844.833 232.703 840.231 228.455C835.629 224.207 833.328 218.897 833.328 212.525C833.328 205.445 835.629 199.781 840.231 195.533C844.833 191.285 850.851 189.161 858.285 189.161H980.947C988.38 189.161 994.399 191.285 999.001 195.533C1003.6 199.781 1005.9 205.445 1005.9 212.525C1005.9 218.897 1003.6 224.207 999.001 228.455C994.399 232.703 988.38 234.827 980.947 234.827H858.285ZM1167.52 471.122C1141.68 471.122 1118.49 464.75 1097.96 452.006C1077.43 438.908 1061.15 421.385 1049.11 399.437C1037.43 377.135 1031.59 352.001 1031.59 324.035C1031.59 296.069 1037.96 270.935 1050.7 248.633C1063.8 226.331 1081.32 208.808 1103.27 196.064C1125.57 182.966 1150.53 176.417 1178.14 176.417C1205.75 176.417 1230.53 182.966 1252.48 196.064C1274.43 208.808 1291.78 226.331 1304.52 248.633C1317.62 270.935 1324.17 296.069 1324.17 324.035H1303.46C1303.46 352.001 1297.44 377.135 1285.4 399.437C1273.72 421.385 1257.62 438.908 1237.08 452.006C1216.55 464.75 1193.36 471.122 1167.52 471.122ZM1178.14 423.332C1196.2 423.332 1212.3 419.084 1226.46 410.588C1240.62 401.738 1251.77 389.879 1259.92 375.011C1268.06 359.789 1272.13 342.797 1272.13 324.035C1272.13 304.919 1268.06 287.927 1259.92 273.059C1251.77 257.837 1240.62 245.978 1226.46 237.482C1212.3 228.632 1196.2 224.207 1178.14 224.207C1160.44 224.207 1144.34 228.632 1129.82 237.482C1115.66 245.978 1104.33 257.837 1095.84 273.059C1087.7 287.927 1083.62 304.919 1083.62 324.035C1083.62 342.797 1087.7 359.789 1095.84 375.011C1104.33 389.879 1115.66 401.738 1129.82 410.588C1144.34 419.084 1160.44 423.332 1178.14 423.332ZM1297.09 469.529C1289.3 469.529 1282.75 467.051 1277.44 462.095C1272.48 456.785 1270.01 450.236 1270.01 442.448V361.205L1280.09 304.919L1324.17 324.035V442.448C1324.17 450.236 1321.51 456.785 1316.2 462.095C1311.25 467.051 1304.87 469.529 1297.09 469.529ZM1748.86 469.529C1741.08 469.529 1734.53 467.051 1729.22 462.095C1724.26 456.785 1721.78 450.236 1721.78 442.448V290.582C1721.78 268.28 1716.3 251.819 1705.32 241.199C1694.35 230.225 1680.01 224.738 1662.31 224.738C1643.9 224.738 1628.68 231.11 1616.64 243.854C1604.96 256.598 1599.12 272.882 1599.12 292.706H1555.05C1555.05 269.696 1560 249.518 1569.92 232.172C1579.83 214.472 1593.63 200.666 1611.33 190.754C1629.39 180.842 1649.92 175.886 1672.93 175.886C1693.11 175.886 1710.99 180.311 1726.56 189.161C1742.14 198.011 1754.17 211.109 1762.67 228.455C1771.52 245.447 1775.94 266.156 1775.94 290.582V442.448C1775.94 450.236 1773.47 456.785 1768.51 462.095C1763.55 467.051 1757.01 469.529 1748.86 469.529ZM1394.69 469.529C1386.9 469.529 1380.35 467.051 1375.04 462.095C1370.08 456.785 1367.61 450.236 1367.61 442.448V206.153C1367.61 198.011 1370.08 191.462 1375.04 186.506C1380.35 181.55 1386.9 179.072 1394.69 179.072C1402.83 179.072 1409.38 181.55 1414.33 186.506C1419.29 191.462 1421.77 198.011 1421.77 206.153V442.448C1421.77 450.236 1419.29 456.785 1414.33 462.095C1409.38 467.051 1402.83 469.529 1394.69 469.529ZM1572.04 469.529C1564.25 469.529 1557.7 467.051 1552.39 462.095C1547.44 456.785 1544.96 450.236 1544.96 442.448V290.582C1544.96 268.28 1539.47 251.819 1528.5 241.199C1517.52 230.225 1503.19 224.738 1485.49 224.738C1467.08 224.738 1451.86 231.11 1439.82 243.854C1427.79 256.598 1421.77 272.882 1421.77 292.706H1388.31C1388.31 269.696 1392.92 249.518 1402.12 232.172C1411.32 214.472 1424.07 200.666 1440.35 190.754C1456.64 180.842 1475.22 175.886 1496.11 175.886C1516.29 175.886 1534.16 180.311 1549.74 189.161C1565.31 198.011 1577.35 211.109 1585.85 228.455C1594.7 245.447 1599.12 266.156 1599.12 290.582V442.448C1599.12 450.236 1596.64 456.785 1591.69 462.095C1586.73 467.051 1580.18 469.529 1572.04 469.529Z" fill="white"/>
</svg>
