<svg width="233" height="63" viewBox="0 0 233 63" fill="none" xmlns="http://www.w3.org/2000/svg">
<path fill-rule="evenodd" clip-rule="evenodd" d="M34.935 33.3206C34.935 32.6434 34.5791 32.0207 33.9941 31.6849L18.4083 22.7151C18.1445 22.5604 17.8491 22.4797 17.5497 22.4676C17.5235 22.4676 17.4106 22.4676 17.3886 22.4676C17.0912 22.4797 16.7954 22.5604 16.5284 22.7151L0.942383 31.6849C0.361328 32.0207 0 32.6434 0 33.3206L0.0341798 57.4734C0.0341798 57.8094 0.208496 58.1219 0.503906 58.2864C0.793458 58.4598 1.15088 58.4598 1.43945 58.2864L10.7017 52.9827C11.2876 52.6346 11.6445 52.0208 11.6445 51.3494V40.0652C11.6445 39.3924 12.001 38.7699 12.5845 38.4354L16.5284 36.1639C16.8223 35.994 17.1435 35.911 17.4716 35.911C17.793 35.911 18.1225 35.994 18.4083 36.1639L22.3511 38.4354C22.9346 38.7699 23.2925 39.3924 23.2925 40.0652V51.3494C23.2925 52.0208 23.6537 52.6385 24.2359 52.9827L33.4961 58.2864C33.7866 58.4598 34.1489 58.4598 34.437 58.2864C34.7241 58.1219 34.9048 57.8094 34.9048 57.4734L34.935 33.3206Z" fill="#404137"/>
<path fill-rule="evenodd" clip-rule="evenodd" d="M116.714 45.8968C116.714 46.0648 116.624 46.2205 116.478 46.304L111.125 49.39C110.979 49.4735 110.8 49.4735 110.655 49.39L105.301 46.304C105.156 46.2205 105.066 46.0648 105.066 45.8968V39.7151C105.066 39.5476 105.156 39.3919 105.301 39.3074L110.654 36.2156C110.8 36.1311 110.979 36.1311 111.125 36.2156L116.479 39.3074C116.624 39.3919 116.714 39.5476 116.714 39.7151V45.8968ZM118.16 0.118999C117.869 -0.0436255 117.513 -0.0397504 117.225 0.12925C116.937 0.298125 116.76 0.60725 116.76 0.94075V24.8601C116.76 25.095 116.634 25.3128 116.431 25.4305C116.227 25.5486 115.976 25.5486 115.772 25.4305L111.868 23.1815C111.286 22.846 110.569 22.8465 109.987 23.1819L94.395 32.1805C93.812 32.5169 93.4536 33.138 93.4536 33.8109V51.8113C93.4536 52.4837 93.812 53.1053 94.3945 53.4422L109.986 62.4471C110.569 62.7835 111.287 62.7835 111.87 62.4471L127.464 53.4422C128.046 53.1053 128.405 52.4837 128.405 51.8113V6.94075C128.405 6.25813 128.035 5.62925 127.439 5.29625L118.16 0.118999Z" fill="#404137"/>
<path fill-rule="evenodd" clip-rule="evenodd" d="M173.944 39.5535C174.524 39.2166 174.88 38.5965 174.88 37.9256V33.5638C174.88 32.8929 174.524 32.2723 173.943 31.9354L158.451 22.9403C157.867 22.6019 157.149 22.6014 156.564 22.9378L140.977 31.9364C140.395 32.2728 140.036 32.8939 140.036 33.5668V51.5623C140.036 52.2391 140.4 52.8636 140.988 53.1981L156.477 62.0242C157.049 62.3504 157.749 62.3538 158.324 62.0345L167.693 56.827C167.99 56.6619 168.175 56.3499 168.176 56.0106C168.179 55.6712 167.998 55.3567 167.704 55.1878L152.019 46.1849C151.725 46.0174 151.545 45.7054 151.545 45.3685V39.7288C151.545 39.3924 151.725 39.0814 152.016 38.9134L156.899 36.0989C157.189 35.931 157.547 35.931 157.839 36.0989L162.723 38.9134C163.014 39.0814 163.194 39.3924 163.194 39.7288V44.1659C163.194 44.5028 163.374 44.8143 163.665 44.9823C163.957 45.1506 164.316 45.1493 164.607 44.9803L173.944 39.5535Z" fill="#404137"/>
<path fill-rule="evenodd" clip-rule="evenodd" d="M63.2876 22.8435C63.8696 22.5071 64.5874 22.5071 65.1694 22.8435L80.7598 31.8401C81.3428 32.1761 81.7016 32.7976 81.7016 33.471V51.4778C81.7016 52.1507 81.3428 52.7718 80.7608 53.1087L65.1704 62.1126C64.5874 62.449 63.8696 62.449 63.2866 62.1126L47.7003 53.1087C47.1176 52.7718 46.7588 52.1507 46.7588 51.4778V33.47C46.7588 32.7976 47.1176 32.1761 47.7006 31.8401L63.2876 22.8435Z" fill="#83CD29"/>
<path d="M204.214 62.3699C203.676 62.3699 203.143 62.2293 202.673 61.9573L197.764 59.053C197.031 58.6429 197.389 58.4979 197.63 58.4134C198.609 58.074 198.806 57.9959 199.85 57.4041C199.959 57.3431 200.102 57.366 200.215 57.4319L203.985 59.6707C204.123 59.7464 204.315 59.7464 204.441 59.6707L219.141 51.1858C219.279 51.1077 219.366 50.95 219.366 50.7879V33.8225C219.366 33.6565 219.279 33.5013 219.139 33.4173L204.444 24.9393C204.308 24.8601 204.128 24.8601 203.99 24.9393L189.299 33.4198C189.156 33.5013 189.066 33.6614 189.066 33.8225V50.7879C189.066 50.95 189.156 51.1038 189.298 51.181L193.325 53.5076C195.51 54.5999 196.849 53.3133 196.849 52.0208V35.2703C196.849 35.0335 197.039 34.8465 197.275 34.8465H199.14C199.372 34.8465 199.565 35.0335 199.565 35.2703V52.0208C199.565 54.9368 197.977 56.6092 195.212 56.6092C194.362 56.6092 193.694 56.6092 191.826 55.6888L187.971 53.4695C187.019 52.9192 186.43 51.8899 186.43 50.7879V33.8225C186.43 32.72 187.019 31.6913 187.971 31.1429L202.673 22.6483C203.603 22.1219 204.839 22.1219 205.761 22.6483L220.461 31.1429C221.414 31.6936 222.005 32.72 222.005 33.8225V50.7879C222.005 51.8899 221.414 52.9153 220.461 53.4695L205.761 61.9573C205.291 62.2293 204.759 62.3699 204.214 62.3699Z" fill="#83CD29"/>
<path d="M208.755 50.6815C202.321 50.6815 200.974 47.7288 200.974 45.2518C200.974 45.0164 201.164 44.8284 201.399 44.8284H203.3C203.513 44.8284 203.689 44.9808 203.723 45.1883C204.009 47.1234 204.865 48.0999 208.755 48.0999C211.851 48.0999 213.17 47.3993 213.17 45.7561C213.17 44.8089 212.796 44.1058 207.984 43.6346C203.961 43.2366 201.474 42.348 201.474 39.1301C201.474 36.1639 203.974 34.3949 208.165 34.3949C212.875 34.3949 215.205 36.0296 215.5 39.5364C215.511 39.6575 215.469 39.7733 215.389 39.8636C215.307 39.948 215.195 39.9994 215.077 39.9994H213.169C212.971 39.9994 212.796 39.8588 212.756 39.6673C212.299 37.6311 211.185 36.9803 208.165 36.9803C204.784 36.9803 204.391 38.1585 204.391 39.0409C204.391 40.1101 204.855 40.4216 209.42 41.0256C213.937 41.6229 216.084 42.4685 216.084 45.6439C216.084 48.847 213.413 50.6815 208.755 50.6815Z" fill="#83CD29"/>
<path d="M229.026 22.6873V23.1229H227.789V26.347H227.29V23.1229H226.057V22.6873H229.026Z" fill="#83CD29"/>
<path d="M229.467 22.6873H230.179L231.229 25.7806L232.275 22.6873H232.981V26.347H232.508V24.1873C232.508 24.1116 232.509 23.9886 232.511 23.8176C232.516 23.6419 232.519 23.4564 232.519 23.2596L231.473 26.347H230.981L229.926 23.2596V23.3694C229.926 23.4598 229.926 23.5965 229.932 23.782C229.936 23.9641 229.941 24.0994 229.941 24.1873V26.347H229.467V22.6873Z" fill="#83CD29"/>
<path fill-rule="evenodd" clip-rule="evenodd" d="M157.277 38.7108C157.39 38.6458 157.527 38.6458 157.639 38.7108L160.631 40.4369C160.742 40.5013 160.811 40.6204 160.811 40.7498V44.2044C160.811 44.3338 160.742 44.4529 160.631 44.5174L157.639 46.2435C157.527 46.3084 157.39 46.3084 157.277 46.2435L154.289 44.5174C154.176 44.4529 154.107 44.3338 154.107 44.2044V40.7498C154.107 40.6204 154.176 40.5013 154.289 40.4369L157.277 38.7108Z" fill="#83CD29"/>
</svg>
